<?xml version="1.0" standalone="no"?>
<!DOCTYPE svg PUBLIC "-//W3C//DTD SVG 20010904//EN"
 "http://www.w3.org/TR/2001/REC-SVG-20010904/DTD/svg10.dtd">
<svg version="1.0" xmlns="http://www.w3.org/2000/svg"
 width="512.000000pt" height="512.000000pt" viewBox="0 0 512.000000 512.000000"
 preserveAspectRatio="xMidYMid meet">

<g transform="translate(0.000000,512.000000) scale(0.100000,-0.100000)"
fill="#000000" stroke="none">
<path d="M825 5096 c-77 -24 -146 -82 -184 -154 -24 -45 -461 -1206 -461
-1224 0 -11 11 -30 25 -43 31 -32 75 -33 102 -2 11 12 119 283 239 602 120
318 228 592 239 609 50 74 145 97 220 54 48 -28 85 -89 85 -141 0 -24 -40
-143 -110 -330 -111 -293 -120 -328 -87 -355 22 -18 676 -262 702 -262 14 0
33 8 43 18 10 10 64 141 121 292 57 151 114 291 126 311 30 47 82 71 143 67
44 -3 47 -5 50 -33 2 -20 -51 -172 -158 -455 -89 -234 -206 -542 -260 -685
-228 -603 -212 -565 -257 -606 -29 -28 -53 -42 -98 -59 -24 -9 -27 -7 -42 27
-8 21 -13 53 -10 73 2 20 57 174 121 342 64 169 116 316 116 327 0 46 -40 67
-367 190 -177 66 -335 121 -351 121 -15 0 -36 -6 -45 -12 -10 -7 -71 -154
-136 -327 -66 -173 -128 -326 -139 -340 -66 -89 -207 -84 -269 8 -39 58 -40
95 -5 196 18 50 32 102 32 118 0 57 -74 88 -118 50 -11 -10 -35 -58 -53 -108
-63 -168 -41 -295 67 -394 89 -81 205 -105 321 -67 61 20 145 91 172 145 10
20 63 153 117 296 53 143 99 262 100 264 2 3 479 -175 495 -185 4 -2 -41 -129
-98 -281 -116 -306 -126 -352 -99 -445 9 -31 16 -59 16 -62 0 -3 -19 -18 -43
-34 -63 -44 -200 -184 -289 -295 -90 -113 -99 -149 -51 -199 22 -23 35 -28 76
-28 71 0 122 -18 168 -59 40 -36 40 -36 30 -81 -25 -107 -2 -237 57 -330 16
-25 105 -126 197 -225 223 -238 226 -245 235 -479 6 -170 6 -171 40 -234 59
-111 144 -166 285 -184 95 -12 149 -38 182 -87 35 -51 43 -95 43 -228 0 -110
2 -125 20 -143 26 -26 74 -26 101 1 20 20 20 29 17 187 -3 160 -4 169 -31 220
-59 113 -155 177 -288 192 -92 11 -139 30 -175 73 -42 50 -47 73 -54 254 l-6
172 -42 83 c-35 71 -67 111 -218 273 -97 104 -185 208 -196 229 -23 44 -34
136 -24 190 7 35 8 36 51 36 57 0 87 -12 148 -60 51 -41 79 -48 120 -29 44 20
50 44 55 220 4 146 -5 291 -24 379 -5 22 0 28 38 46 59 29 106 70 139 122 l28
44 3 -483 3 -484 27 -57 c35 -75 104 -141 174 -167 44 -17 78 -21 179 -21 69
0 125 -2 125 -4 0 -2 -21 -47 -46 -100 -55 -116 -124 -318 -124 -362 0 -70 67
-109 136 -78 49 20 141 21 181 1 28 -15 30 -21 36 -84 7 -91 37 -167 97 -248
58 -78 74 -121 73 -192 -2 -70 -29 -123 -109 -211 -56 -63 -65 -78 -59 -100 8
-35 40 -62 74 -62 39 0 172 138 209 216 24 53 27 70 27 164 0 94 -3 111 -28
164 -15 33 -43 78 -61 100 -50 62 -68 104 -74 172 l-5 62 34 18 c44 22 133 23
176 1 65 -34 132 -9 148 56 8 32 -66 256 -129 391 -25 55 -45 100 -44 101 2 1
35 9 73 19 80 19 203 74 234 105 31 31 28 84 -5 110 -15 12 -32 21 -39 21 -7
0 -48 -18 -90 -39 -127 -65 -164 -70 -562 -72 -397 -1 -402 0 -451 74 l-27 41
0 900 0 901 23 37 c13 20 40 47 60 60 37 23 41 23 347 23 265 0 319 -3 374
-18 158 -43 290 -152 359 -297 80 -168 81 -326 3 -493 -17 -37 -31 -73 -31
-82 0 -9 24 -42 54 -73 79 -84 130 -170 168 -287 17 -54 17 -256 -1 -320 -8
-27 -27 -76 -43 -109 -47 -98 -31 -156 45 -156 39 0 68 33 104 120 65 156 80
350 38 505 -24 88 -87 211 -143 281 l-50 62 24 66 c54 150 54 321 0 477 -36
104 -81 174 -171 264 -91 92 -191 150 -315 184 -66 19 -103 21 -321 21 -135 0
-248 2 -251 5 -3 3 37 117 90 253 94 245 95 248 96 337 1 79 -2 96 -26 141
-35 66 -115 138 -178 159 -109 36 -232 13 -318 -60 -53 -45 -73 -85 -172 -345
-51 -135 -93 -246 -94 -247 -3 -4 -481 179 -490 187 -5 5 31 113 85 252 92
241 93 244 94 333 0 81 -3 95 -30 144 -75 136 -236 202 -380 157z m484 -2776
c-5 -187 -10 -199 -65 -150 -58 50 -118 72 -214 79 l-85 6 85 89 c47 49 111
109 143 132 l59 44 40 -21 40 -20 -3 -159z m1274 -908 c39 -59 87 -158 121
-252 l32 -85 -60 0 c-38 0 -86 -9 -128 -24 l-66 -24 -61 23 c-35 13 -86 23
-121 24 -33 0 -60 5 -60 9 0 32 101 259 148 329 l25 38 72 0 72 0 26 -38z"/>
<path d="M3888 4750 c-147 -18 -226 -49 -541 -213 -264 -139 -307 -170 -349
-255 -19 -39 -23 -63 -23 -142 l0 -95 400 -765 c445 -850 441 -844 562 -890
91 -35 175 -31 268 13 l74 35 5 -66 c9 -106 35 -281 52 -356 20 -85 47 -116
101 -116 33 0 46 7 83 46 44 45 106 84 133 84 22 0 101 -311 92 -366 -7 -51
-36 -96 -88 -138 -38 -30 -42 -31 -175 -37 -148 -7 -193 -18 -265 -68 -98 -67
-146 -142 -177 -277 -12 -48 -29 -102 -40 -118 -51 -84 -130 -125 -236 -126
-254 -1 -399 -105 -488 -352 -10 -27 -38 -68 -67 -98 -55 -57 -64 -95 -29
-130 70 -70 191 45 264 252 10 26 35 66 58 88 62 64 112 82 255 90 114 6 127
9 197 43 126 63 198 161 230 314 18 89 34 120 86 167 58 52 79 59 225 66 162
8 228 33 305 117 104 114 116 215 51 455 l-43 157 42 55 c46 61 96 90 172 101
36 4 53 14 73 36 38 45 33 81 -17 136 -56 60 -216 194 -296 246 l-62 41 32 25
c151 114 276 302 330 502 20 73 23 106 23 264 -1 154 -4 194 -24 275 -59 241
-196 494 -363 673 -37 39 -51 47 -80 47 -23 0 -42 -8 -56 -23 -39 -41 -31 -63
67 -172 136 -154 257 -403 297 -612 20 -108 15 -327 -10 -418 -24 -87 -97
-231 -155 -301 -71 -87 -158 -149 -371 -263 -300 -160 -309 -164 -355 -164
-58 0 -128 41 -159 96 -13 23 -194 366 -401 761 -342 652 -377 724 -377 767 0
30 8 61 22 87 26 46 64 69 380 229 221 112 284 134 425 148 85 8 203 -10 304
-46 103 -38 138 -40 163 -9 28 34 23 74 -12 104 -41 34 -199 83 -307 96 -97
11 -108 11 -205 0z m737 -2186 c55 -29 217 -148 253 -187 l23 -24 -54 -31
c-51 -29 -83 -59 -118 -112 -12 -19 -28 -25 -79 -31 -38 -4 -86 -19 -121 -37
-67 -35 -62 -40 -78 78 -18 140 -22 202 -16 254 7 51 8 53 63 84 32 17 62 32
67 32 6 0 33 -12 60 -26z"/>
<path d="M3920 4259 c-35 -6 -106 -35 -199 -81 -138 -70 -181 -103 -181 -137
0 -14 540 -1050 562 -1078 5 -6 22 -15 38 -18 45 -10 284 120 360 197 172 171
160 506 -28 798 -152 237 -351 352 -552 319z m195 -173 c114 -52 254 -227 316
-394 40 -111 51 -259 25 -340 -25 -74 -83 -134 -182 -188 -47 -25 -87 -45 -88
-43 -5 5 -466 881 -466 884 0 2 34 22 75 44 135 74 217 84 320 37z"/>
<path d="M2243 3275 c-22 -16 -23 -21 -23 -199 0 -237 -16 -221 209 -221 l168
0 49 30 c106 66 141 195 81 298 -15 26 -47 60 -69 75 -41 26 -45 27 -217 30
-149 2 -180 0 -198 -13z m322 -139 c39 -17 54 -54 36 -92 -16 -35 -52 -45
-150 -42 l-86 3 -3 59 c-2 32 -1 65 2 72 7 19 155 19 201 0z"/>
<path d="M2241 2491 c-20 -20 -21 -32 -21 -266 0 -234 1 -246 21 -266 20 -20
29 -20 242 -17 l222 3 53 30 c59 32 91 66 125 129 31 58 31 184 0 242 -34 63
-66 97 -125 129 l-53 30 -222 3 c-213 3 -222 3 -242 -17z m457 -151 c57 -35
77 -111 45 -177 -30 -64 -58 -73 -230 -73 l-153 0 0 135 0 135 153 0 c135 0
156 -2 185 -20z"/>
</g>
</svg>
